<svg xmlns="http://www.w3.org/2000/svg" xmlns:xlink="http://www.w3.org/1999/xlink" contentStyleType="text/css" data-diagram-type="DESCRIPTION" height="952px" preserveAspectRatio="none" style="width:1392px;height:952px;background:#FFFFFF;" version="1.1" viewBox="0 0 1392 952" width="1392px" zoomAndPan="magnify"><?plantuml 1.2026.6?><defs/><g><g class="title" data-source-line="1"><text fill="#000000" font-family="'Apple SD Gothic Neo'" font-size="14" font-weight="700" lengthAdjust="spacing" textLength="177.17" x="604.249" y="22.6">&#54616;&#45348;&#49828; / &#54756;&#47476;&#47700;&#49828; &#50640;&#51060;&#51204;&#53944; &#44396;&#51312;</text></g><!--entity user--><g class="entity" data-qualified-name="user" data-source-line="15" id="ent0001"><ellipse cx="24.165" cy="550.3" fill="#F1F1F1" rx="8" ry="8" style="stroke:#181818;stroke-width:0.5;"/><path d="M24.165,558.3 L24.165,585.3 M11.165,566.3 L37.165,566.3 M24.165,585.3 L11.165,600.3 M24.165,585.3 L37.165,600.3" fill="none" style="stroke:#181818;stroke-width:0.5;"/><text fill="#000000" font-family="'Apple SD Gothic Neo'" font-size="14" lengthAdjust="spacing" textLength="36.33" x="6" y="614.4">&#49324;&#50857;&#51088;</text></g><!--entity input--><g class="entity" data-qualified-name="input" data-source-line="16" id="ent0002"><rect fill="#F1F1F1" height="36.8" rx="4" ry="4" style="stroke:#181818;stroke-width:0.5;" width="137.278" x="112.33" y="561.8"/><text fill="#000000" font-family="'Apple SD Gothic Neo'" font-size="14" lengthAdjust="spacing" textLength="117.278" x="122.33" y="584.4">IDE / &#53552;&#48120;&#45328; / &#49828;&#52992;&#51460;</text></g><!--entity hermes--><g class="entity" data-qualified-name="hermes" data-source-line="18" id="ent0003"><rect fill="#F1F1F1" height="288.8" rx="4" ry="4" style="stroke:#181818;stroke-width:0.5;" width="251.266" x="319.61" y="435.8"/><text fill="#000000" font-family="'Apple SD Gothic Neo'" font-size="14" lengthAdjust="spacing" textLength="88.452" x="329.61" y="458.4">&#54756;&#47476;&#47700;&#49828; &#50868;&#50689;&#51088;</text><text fill="#000000" font-family="'Apple SD Gothic Neo'" font-size="14" lengthAdjust="spacing" textLength="101.038" x="329.61" y="475.2">(harness hermes)</text><text fill="#000000" font-family="'Apple SD Gothic Neo'" font-size="14" lengthAdjust="spacing" textLength="3.682" x="329.61" y="492">&#160;</text><text fill="#000000" font-family="'Apple SD Gothic Neo'" font-size="14" lengthAdjust="spacing" textLength="61.852" x="329.61" y="508.8">- &#50868;&#50689; &#47749;&#47161;</text><text fill="#000000" font-family="'Apple SD Gothic Neo'" font-size="14" lengthAdjust="spacing" textLength="168.658" x="336.974" y="525.6">status / plan / enqueue / tick</text><text fill="#000000" font-family="'Apple SD Gothic Neo'" font-size="14" lengthAdjust="spacing" textLength="49.742" x="329.61" y="542.4">- &#51089;&#50629; &#53328;</text><text fill="#000000" font-family="'Apple SD Gothic Neo'" font-size="14" lengthAdjust="spacing" textLength="190.582" x="336.974" y="559.2">pending / running / done / failed</text><text fill="#000000" font-family="'Apple SD Gothic Neo'" font-size="14" lengthAdjust="spacing" textLength="73.136" x="329.61" y="576">- &#44228;&#54925; + &#51221;&#52293;</text><text fill="#000000" font-family="'Apple SD Gothic Neo'" font-size="14" lengthAdjust="spacing" textLength="92.134" x="336.974" y="592.8">&#47700;&#47784;&#47532; &#44592;&#48152; &#44228;&#54925;</text><text fill="#000000" font-family="'Apple SD Gothic Neo'" font-size="14" lengthAdjust="spacing" textLength="80.024" x="336.974" y="609.6">&#50948;&#54744; &#51089;&#50629; &#52264;&#45800;</text><text fill="#000000" font-family="'Apple SD Gothic Neo'" font-size="14" lengthAdjust="spacing" textLength="92.134" x="336.974" y="626.4">&#48372;&#54840; &#48652;&#47004;&#52824; &#52264;&#45800;</text><text fill="#000000" font-family="'Apple SD Gothic Neo'" font-size="14" lengthAdjust="spacing" textLength="73.962" x="329.61" y="643.2">- &#54588;&#46300;&#48177; &#51200;&#51109;</text><text fill="#000000" font-family="'Apple SD Gothic Neo'" font-size="14" lengthAdjust="spacing" textLength="61.852" x="329.61" y="660">- &#54056;&#53556; &#49849;&#44201;</text><text fill="#000000" font-family="'Apple SD Gothic Neo'" font-size="14" lengthAdjust="spacing" textLength="97.16" x="336.974" y="676.8">&#51228;&#50504; / patch &#49373;&#49457;</text><text fill="#000000" font-family="'Apple SD Gothic Neo'" font-size="14" lengthAdjust="spacing" textLength="85.246" x="329.61" y="693.6">- &#47532;&#54252;&#53944; + &#50508;&#47548;</text><text fill="#000000" font-family="'Apple SD Gothic Neo'" font-size="14" lengthAdjust="spacing" textLength="223.902" x="336.974" y="710.4">markdown / webhook / slack / discord</text></g><!--entity runtime--><g class="entity" data-qualified-name="runtime" data-source-line="20" id="ent0004"><rect fill="#F1F1F1" height="272" rx="4" ry="4" style="stroke:#181818;stroke-width:0.5;" width="273.134" x="640.87" y="90.2"/><text fill="#000000" font-family="'Apple SD Gothic Neo'" font-size="14" lengthAdjust="spacing" textLength="76.342" x="650.87" y="112.8">&#54616;&#45348;&#49828; &#49892;&#54665;&#44592;</text><text fill="#000000" font-family="'Apple SD Gothic Neo'" font-size="14" lengthAdjust="spacing" textLength="77.406" x="650.87" y="129.6">(harness run)</text><text fill="#000000" font-family="'Apple SD Gothic Neo'" font-size="14" lengthAdjust="spacing" textLength="3.682" x="650.87" y="146.4">&#160;</text><text fill="#000000" font-family="'Apple SD Gothic Neo'" font-size="14" lengthAdjust="spacing" textLength="98.182" x="650.87" y="163.2">- &#54028;&#51060;&#54532;&#46972;&#51064; &#49440;&#53469;</text><text fill="#000000" font-family="'Apple SD Gothic Neo'" font-size="14" lengthAdjust="spacing" textLength="245.77" x="658.234" y="180">quick_fix / code_fix / safe_fix / review_only</text><text fill="#000000" font-family="'Apple SD Gothic Neo'" font-size="14" lengthAdjust="spacing" textLength="98.182" x="650.87" y="196.8">- &#50640;&#51060;&#51204;&#53944; &#50612;&#45841;&#53552;</text><text fill="#000000" font-family="'Apple SD Gothic Neo'" font-size="14" lengthAdjust="spacing" textLength="147.35" x="658.234" y="213.6">Codex / Claude / &#44592;&#53440; CLI</text><text fill="#000000" font-family="'Apple SD Gothic Neo'" font-size="14" lengthAdjust="spacing" textLength="73.962" x="650.87" y="230.4">- &#51089;&#50629;&#51088; &#45800;&#44228;</text><text fill="#000000" font-family="'Apple SD Gothic Neo'" font-size="14" lengthAdjust="spacing" textLength="169.456" x="658.234" y="247.2">planner / coder / qa / verifier</text><text fill="#000000" font-family="'Apple SD Gothic Neo'" font-size="14" lengthAdjust="spacing" textLength="61.852" x="650.87" y="264">- &#44160;&#51613; &#45800;&#44228;</text><text fill="#000000" font-family="'Apple SD Gothic Neo'" font-size="14" lengthAdjust="spacing" textLength="132.986" x="658.234" y="280.8">build / test / validation</text><text fill="#000000" font-family="'Apple SD Gothic Neo'" font-size="14" lengthAdjust="spacing" textLength="98.182" x="650.87" y="297.6">- &#54756;&#47476;&#47700;&#49828; &#44048;&#46021;&#51088;</text><text fill="#000000" font-family="'Apple SD Gothic Neo'" font-size="14" lengthAdjust="spacing" textLength="116.354" x="658.234" y="314.4">&#54028;&#51060;&#54532;&#46972;&#51064; &#45236;&#48512; &#54032;&#45800;</text><text fill="#000000" font-family="'Apple SD Gothic Neo'" font-size="14" lengthAdjust="spacing" textLength="73.962" x="650.87" y="331.2">- &#52572;&#51333; &#48372;&#44256;&#51088;</text><text fill="#000000" font-family="'Apple SD Gothic Neo'" font-size="14" lengthAdjust="spacing" textLength="70.574" x="658.234" y="348">reporter.md</text></g><!--entity project--><g class="entity" data-qualified-name="project" data-source-line="22" id="ent0005"><rect fill="#F1F1F1" height="120.8" rx="4" ry="4" style="stroke:#181818;stroke-width:0.5;" width="192.13" x="984.01" y="44.8"/><text fill="#000000" font-family="'Apple SD Gothic Neo'" font-size="14" lengthAdjust="spacing" textLength="88.452" x="994.01" y="67.4">&#54532;&#47196;&#51229;&#53944; &#51200;&#51109;&#49548;</text><text fill="#000000" font-family="'Apple SD Gothic Neo'" font-size="14" lengthAdjust="spacing" textLength="3.682" x="994.01" y="84.2">&#160;</text><text fill="#000000" font-family="'Apple SD Gothic Neo'" font-size="14" lengthAdjust="spacing" textLength="85.106" x="994.01" y="101">- .harness.json</text><text fill="#000000" font-family="'Apple SD Gothic Neo'" font-size="14" lengthAdjust="spacing" textLength="164.766" x="1001.374" y="117.8">&#49444;&#51221; / &#48372;&#54840; &#48652;&#47004;&#52824; / &#50508;&#47548; &#52292;&#45328;</text><text fill="#000000" font-family="'Apple SD Gothic Neo'" font-size="14" lengthAdjust="spacing" textLength="92.806" x="994.01" y="134.6">- &#54788;&#51116; git &#48652;&#47004;&#52824;</text><text fill="#000000" font-family="'Apple SD Gothic Neo'" font-size="14" lengthAdjust="spacing" textLength="61.852" x="994.01" y="151.4">- &#49548;&#49828; &#53076;&#46300;</text></g><!--entity memory--><g class="entity" data-qualified-name="memory" data-source-line="24" id="ent0006"><path d="M1246.14,671.7 C1246.14,661.7 1306.904,661.7 1306.904,661.7 C1306.904,661.7 1367.668,661.7 1367.668,671.7 L1367.668,764.7 C1367.668,774.7 1306.904,774.7 1306.904,774.7 C1306.904,774.7 1246.14,774.7 1246.14,764.7 L1246.14,671.7" fill="#F1F1F1" style="stroke:#181818;stroke-width:0.5;"/><path d="M1246.14,671.7 C1246.14,681.7 1306.904,681.7 1306.904,681.7 C1306.904,681.7 1367.668,681.7 1367.668,671.7" fill="none" style="stroke:#181818;stroke-width:0.5;"/><text fill="#000000" font-family="'Apple SD Gothic Neo'" font-size="14" lengthAdjust="spacing" textLength="76.342" x="1256.14" y="698.3">&#47700;&#47784;&#47532; &#51200;&#51109;&#49548;</text><text fill="#000000" font-family="'Apple SD Gothic Neo'" font-size="14" lengthAdjust="spacing" textLength="3.682" x="1256.14" y="715.1">&#160;</text><text fill="#000000" font-family="'Apple SD Gothic Neo'" font-size="14" lengthAdjust="spacing" textLength="101.528" x="1256.14" y="731.9">.harness/memory</text><text fill="#000000" font-family="'Apple SD Gothic Neo'" font-size="14" lengthAdjust="spacing" textLength="55.888" x="1256.14" y="748.7">runs.jsonl</text><text fill="#000000" font-family="'Apple SD Gothic Neo'" font-size="14" lengthAdjust="spacing" textLength="59.892" x="1256.14" y="765.5">repos.json</text></g><!--entity artifacts--><g class="entity" data-qualified-name="artifacts" data-source-line="26" id="ent0007"><rect fill="#F1F1F1" height="104" rx="4" ry="4" style="stroke:#181818;stroke-width:0.5;" width="168.974" x="995.59" y="528.2"/><text fill="#000000" font-family="'Apple SD Gothic Neo'" font-size="14" lengthAdjust="spacing" textLength="64.232" x="1005.59" y="550.8">&#49892;&#54665; &#49328;&#52636;&#47932;</text><text fill="#000000" font-family="'Apple SD Gothic Neo'" font-size="14" lengthAdjust="spacing" textLength="3.682" x="1005.59" y="567.6">&#160;</text><text fill="#000000" font-family="'Apple SD Gothic Neo'" font-size="14" lengthAdjust="spacing" textLength="77.476" x="1005.59" y="584.4">runs/&lt;runId&gt;</text><text fill="#000000" font-family="'Apple SD Gothic Neo'" font-size="14" lengthAdjust="spacing" textLength="77.896" x="1005.59" y="601.2">manifest.json</text><text fill="#000000" font-family="'Apple SD Gothic Neo'" font-size="14" lengthAdjust="spacing" textLength="148.974" x="1005.59" y="618">&#54532;&#47212;&#54532;&#53944; / &#47196;&#44536; / &#45800;&#44228; &#44208;&#44284;</text></g><!--entity external--><g class="entity" data-qualified-name="external" data-source-line="28" id="ent0008"><path d="M730.9578,695.7953 C733.6087,689.6992 739.1651,689.7334 743.0441,694.4186 C746.5709,688.0173 750.3496,688.088 755.3437,692.7938 C758.6915,687.6273 763.1549,687.9077 766.1893,693.1212 C768.7079,685.5079 773.5183,685.3583 778.7494,690.4369 C782.6056,685.8276 787.6602,687.8113 789.2692,692.8796 C791.9881,687.3345 797.8969,686.414 801.1857,692.2847 C805.7914,687.4594 810.544,688.1699 813.2551,694.3604 C817.4755,687.9026 822.3419,688.5057 825.8185,695.0776 C833.275,698.4093 833.0621,702.454 827.9152,707.854 C835.4141,708.9314 836.1363,714.1126 832.4844,719.5473 C837.1716,725.1864 833.8902,730.3421 827.4757,731.2157 C831.3073,735.3535 830.7068,740.1092 825.1276,742.2431 C822.9459,747.4455 817.8569,748.6708 814.3666,743.616 C811.3207,749.6713 805.3205,749.9006 801.9712,743.9288 C799.0218,748.951 795.0017,749.5728 791.1176,744.9843 C788.3505,750.6876 782.9863,751.0597 778.8837,746.5905 C774.7326,751.6401 770.4118,751.7571 766.9488,745.8417 C762.0717,750.286 758.0085,749.9261 755.205,743.584 C752.4532,750.0643 746.4828,750.4674 743.1815,744.0982 C739.4433,749.5741 734.8016,749.2545 731.6914,743.458 C726.2597,740.8088 725.3122,734.8032 730.7986,731.3489 C724.0515,728.3586 723.3917,722.8674 729.4181,718.5043 C724.4311,714.6866 725.1159,709.2785 730.6276,706.5204 C725.2258,703.2867 726.5133,698.7259 730.9578,695.7953" fill="#F1F1F1" style="stroke:#181818;stroke-width:0.5;"/><text fill="#000000" font-family="'Apple SD Gothic Neo'" font-size="14" lengthAdjust="spacing" textLength="80.024" x="737.43" y="714">&#50808;&#48512; &#50508;&#47548; &#52292;&#45328;</text><text fill="#000000" font-family="'Apple SD Gothic Neo'" font-size="14" lengthAdjust="spacing" textLength="52.122" x="737.43" y="730.8">&#49440;&#53469; &#50672;&#44208;</text></g><g class="entity" data-qualified-name="GMN19" data-source-line="44" id="ent0020"><path d="M336.47,794.6 L336.47,835.8 A0,0 0 0 0 336.47,835.8 L554.004,835.8 A0,0 0 0 0 554.004,835.8 L554.004,804.6 L544.004,794.6 L449.67,794.6 L445.67,725.01 L441.67,794.6 L336.47,794.6 A0,0 0 0 0 336.47,794.6" fill="#FEFFDD" style="stroke:#181818;stroke-width:0.5;"/><path d="M544.004,794.6 L544.004,804.6 L554.004,804.6 L544.004,794.6" fill="#FEFFDD" style="stroke:#181818;stroke-width:0.5;"/><text fill="#000000" font-family="'Apple SD Gothic Neo'" font-size="13" lengthAdjust="spacing" textLength="167.687" x="342.47" y="811.3">&#54756;&#47476;&#47700;&#49828; &#50868;&#50689;&#51088;&#45716; &#54616;&#45348;&#49828; &#48150;&#50640;&#49436;</text><text fill="#000000" font-family="'Apple SD Gothic Neo'" font-size="13" lengthAdjust="spacing" textLength="196.534" x="342.47" y="826.9">&#51089;&#50629;&#51012; &#51217;&#49688;&#54616;&#44256; &#49892;&#54665; &#50668;&#48512;&#47484; &#44208;&#51221;&#54620;&#45796;.</text></g><g class="entity" data-qualified-name="GMN22" data-source-line="49" id="ent0023"><path d="M674.3,432.6 L674.3,473.8 A0,0 0 0 0 674.3,473.8 L880.589,473.8 A0,0 0 0 0 880.589,473.8 L880.589,442.6 L870.589,432.6 L781.67,432.6 L777.67,362.5 L773.67,432.6 L674.3,432.6 A0,0 0 0 0 674.3,432.6" fill="#FEFFDD" style="stroke:#181818;stroke-width:0.5;"/><path d="M870.589,432.6 L870.589,442.6 L880.589,442.6 L870.589,432.6" fill="#FEFFDD" style="stroke:#181818;stroke-width:0.5;"/><text fill="#000000" font-family="'Apple SD Gothic Neo'" font-size="13" lengthAdjust="spacing" textLength="167.687" x="680.3" y="449.3">&#54756;&#47476;&#47700;&#49828; &#44048;&#46021;&#51088;&#45716; &#54616;&#45348;&#49828; &#50504;&#50640;&#49436;</text><text fill="#000000" font-family="'Apple SD Gothic Neo'" font-size="13" lengthAdjust="spacing" textLength="185.289" x="680.3" y="464.9">&#51089;&#50629;&#51088; &#44208;&#44284;&#50752; &#44160;&#51613; &#44208;&#44284;&#47484; &#54032;&#45800;&#54620;&#45796;.</text></g><!--link user to input--><g class="link" data-entity-1="ent0001" data-entity-2="ent0002" data-link-type="dependency" data-source-line="30" id="lnk9"><path d="M42.77,580.2 C59.97,580.2 81.62,580.2 106.94,580.2" fill="none" id="user-to-input" style="stroke:#181818;stroke-width:1;"/><polygon fill="#181818" points="111.94,580.2,102.94,576.2,106.94,580.2,102.94,584.2,111.94,580.2" style="stroke:#181818;stroke-width:1;stroke-linejoin:miter;stroke-miterlimit:10;"/></g><!--link input to hermes--><g class="link" data-entity-1="ent0002" data-entity-2="ent0003" data-link-type="dependency" data-source-line="31" id="lnk10"><path d="M250.06,580.2 C271.32,580.2 290.42,580.2 314.25,580.2" fill="none" id="input-to-hermes" style="stroke:#181818;stroke-width:1;"/><polygon fill="#181818" points="319.25,580.2,310.25,576.2,314.25,580.2,310.25,584.2,319.25,580.2" style="stroke:#181818;stroke-width:1;stroke-linejoin:miter;stroke-miterlimit:10;"/></g><!--link hermes to runtime--><g class="link" data-entity-1="ent0003" data-entity-2="ent0004" data-link-type="dependency" data-source-line="33" id="lnk11"><path d="M571.26,454.8 C617.01,454.8 657.67,454.8 657.67,454.8 C657.67,454.8 657.67,416.43 657.67,367.48" fill="none" id="hermes-to-runtime" style="stroke:#181818;stroke-width:1;"/><polygon fill="#181818" points="657.67,362.48,653.67,371.48,657.67,367.48,661.67,371.48,657.67,362.48" style="stroke:#181818;stroke-width:1;stroke-linejoin:miter;stroke-miterlimit:10;"/></g><!--link runtime to project--><g class="link" data-entity-1="ent0004" data-entity-2="ent0005" data-link-type="dependency" data-source-line="34" id="lnk12"><path d="M914.15,127.9 C937.64,127.9 956.61,127.9 978.76,127.9" fill="none" id="runtime-to-project" style="stroke:#181818;stroke-width:1;"/><polygon fill="#181818" points="983.76,127.9,974.76,123.9,978.76,127.9,974.76,131.9,983.76,127.9" style="stroke:#181818;stroke-width:1;stroke-linejoin:miter;stroke-miterlimit:10;"/></g><!--link runtime to artifacts--><g class="link" data-entity-1="ent0004" data-entity-2="ent0007" data-link-type="dependency" data-source-line="35" id="lnk13"><path d="M897.67,362.65 C897.67,455.97 897.67,562.87 897.67,562.87 C897.67,562.87 942.64,562.87 990.28,562.87" fill="none" id="runtime-to-artifacts" style="stroke:#181818;stroke-width:1;"/><polygon fill="#181818" points="995.28,562.87,986.28,558.87,990.28,562.87,986.28,566.87,995.28,562.87" style="stroke:#181818;stroke-width:1;stroke-linejoin:miter;stroke-miterlimit:10;"/></g><!--link artifacts to memory--><g class="link" data-entity-1="ent0007" data-entity-2="ent0006" data-link-type="dependency" data-source-line="36" id="lnk14"><path d="M1079.67,632.66 C1079.67,652.29 1079.67,669.93 1079.67,669.93 C1079.67,669.93 1173.4,669.93 1240.71,669.93" fill="none" id="artifacts-to-memory" style="stroke:#181818;stroke-width:1;"/><polygon fill="#181818" points="1245.71,669.93,1236.71,665.93,1240.71,669.93,1236.71,673.93,1245.71,669.93" style="stroke:#181818;stroke-width:1;stroke-linejoin:miter;stroke-miterlimit:10;"/></g><!--link memory to hermes--><g class="link" data-entity-1="ent0006" data-entity-2="ent0003" data-link-type="dependency" data-source-line="37" id="lnk15"><path d="M1245.97,678.17 C1105.99,678.17 764.07,678.17 576.1,678.17" fill="none" id="memory-to-hermes" style="stroke:#181818;stroke-width:1;"/><polygon fill="#181818" points="571.1,678.17,580.1,682.17,576.1,678.17,580.1,674.17,571.1,678.17" style="stroke:#181818;stroke-width:1;stroke-linejoin:miter;stroke-miterlimit:10;"/></g><!--link hermes to project--><g class="link" data-entity-1="ent0003" data-entity-2="ent0005" data-link-type="dependency" data-source-line="39" id="lnk16"><path d="M571.17,501 C731.97,501 989.67,501 989.67,501 C989.67,501 989.67,281.62 989.67,170.74" fill="none" id="hermes-to-project" style="stroke:#181818;stroke-width:1;"/><polygon fill="#181818" points="989.67,165.74,985.67,174.74,989.67,170.74,993.67,174.74,989.67,165.74" style="stroke:#181818;stroke-width:1;stroke-linejoin:miter;stroke-miterlimit:10;"/></g><!--link hermes to artifacts--><g class="link" data-entity-1="ent0003" data-entity-2="ent0007" data-link-type="dependency" data-source-line="40" id="lnk17"><path d="M571.04,597.53 C696.65,597.53 881.24,597.53 990.1,597.53" fill="none" id="hermes-to-artifacts" style="stroke:#181818;stroke-width:1;"/><polygon fill="#181818" points="995.1,597.53,986.1,593.53,990.1,597.53,986.1,601.53,995.1,597.53" style="stroke:#181818;stroke-width:1;stroke-linejoin:miter;stroke-miterlimit:10;"/></g><!--link hermes to external--><g class="link" data-entity-1="ent0003" data-entity-2="ent0008" data-link-type="dependency" data-source-line="41" id="lnk18"><path d="M571.31,705.5 C623.43,705.5 676.16,705.5 717.23,705.5" fill="none" id="hermes-to-external" style="stroke:#181818;stroke-width:1;"/><polygon fill="#181818" points="722.23,705.5,713.23,701.5,717.23,705.5,713.23,709.5,722.23,705.5" style="stroke:#181818;stroke-width:1;stroke-linejoin:miter;stroke-miterlimit:10;"/></g><g class="legend" data-source-line="53"><rect fill="#DDDDDD" height="77.2" rx="7.5" ry="7.5" style="stroke:#000000;stroke-width:1;" width="325.672" x="529.998" y="856.8"/><line style="stroke:#000000;stroke-width:1;" x1="529.998" x2="663.091" y1="870.2" y2="870.2"/><line style="stroke:#000000;stroke-width:1;" x1="529.998" x2="663.091" y1="872.2" y2="872.2"/><text fill="#000000" font-family="'Apple SD Gothic Neo'" font-size="14" lengthAdjust="spacing" textLength="52.122" x="666.773" y="873.9">&#54645;&#49900; &#44396;&#48516;</text><line style="stroke:#000000;stroke-width:1;" x1="722.577" x2="855.67" y1="870.2" y2="870.2"/><line style="stroke:#000000;stroke-width:1;" x1="722.577" x2="855.67" y1="872.2" y2="872.2"/><text fill="#000000" font-family="'Apple SD Gothic Neo'" font-size="14" lengthAdjust="spacing" textLength="315.672" x="534.998" y="891.2">&#54756;&#47476;&#47700;&#49828; &#50868;&#50689;&#51088;: &#53328;, &#47700;&#47784;&#47532;, &#51221;&#52293;, &#49849;&#44201;, &#47532;&#54252;&#53944;, &#50508;&#47548; &#44288;&#47532;</text><text fill="#000000" font-family="'Apple SD Gothic Neo'" font-size="14" lengthAdjust="spacing" textLength="212.464" x="534.998" y="908">&#54756;&#47476;&#47700;&#49828; &#44048;&#46021;&#51088;: &#54028;&#51060;&#54532;&#46972;&#51064; &#45236;&#48512; &#54032;&#45800;</text><text fill="#000000" font-family="'Apple SD Gothic Neo'" font-size="14" lengthAdjust="spacing" textLength="250.614" x="534.998" y="924.8">&#54616;&#45348;&#49828; &#49892;&#54665;&#44592;: &#50640;&#51060;&#51204;&#53944; CLI&#50752; &#44160;&#51613; &#47749;&#47161; &#49892;&#54665;</text></g><?plantuml-src VLNTJXj75BxVfpZYgbNvwLqhr4IgI5iXLRbeRf6YmJksDrxFcDtP45HLSc29Kd0Les9ma8rCPH14bcg2eKPoNyWp-muzCxkBru7qPdVsxFdzldFE24Uu5A96KuPTjTE51OWEk_9q82_szQSwhAlsG7N2Q6S8u-kUEkbRbalp0WG7poaK1TYEHtF2uSpoImwh48-KmIyIcwyxh01vuleqyoV7onNEA1FFn0O6rgQ45ToiIeNaIgH0Fw_WEeoAZGe5xeaYp_omQPu4hlYHC_6Kb2dCV5-fe8zdJ-0dBefE3fvIFfFHltCElre0l_20sKlSOzI3RwtVCdgCszId5VZcwwmnOQL4Q96Su1xCgCsUEhfGn_KP83u4FlMiIOYPvIS_Q7Z3llnxACCwdX5XDQggRcZqqN4WhAp5D1L70zLyZSvNs1T5WbdwFXIfLwR-bojiXSqb2Y0_RClExGe3y0KHWOznAYvX-A9iBQ01nPDmSYLZShod3hSXUbtN-XNARCtP0dW1O_79HhBmbIUEIsrjChuAewC_u2jGdOQwtDPscA3yS2xFUZ0UzcM_cUZeNweLHeVDD8xgdylTSsDoDOYQGv33cZnkgTlctQyvYFP7yi-Mx5zYXAewFZMosdaK3X2ls_772-EtqrADjxeq8d95K5jj5LvgJSmYUjVJtOePDchoRAJLoyGhOKDg4DRfQf7p4fvy5njDb-ZuEUxPXeCOq6aIxcP3xNQZWz-nnWm3Y5G2VrIhuQX4-w5iZrHx22hiH5jj7NqjGBYVvvrN62o7hPGSVP9FZnvzwT3rvvov6uQMxDIfWu6ixM7RQ5TBQAuDbbmIs9eOp2RQgiBIpyiJFh570C545WohIBvkwJYsVgyHVBoadfDtg6Su_LXLP-sCpMhWkBRk4-eBhKjSnoPwnasXsQuSz-lotRRfIhW7WTmSo9igYki9j-gwfVxQrkoFhpg9aKShECVKco_7522YmYdJQGxGvKbBTTe64DCMwaqjndq-eMB-XQ_pmzv0jZeDJFjUaoqaBG7gCiG9DCKqGtNSWu8Z9decqpSrG_c_-zYC9g-AnrzWHfQ5I91LucDQayQVoYdDQA5Cozn3Hh6aE3qNprXk_66ynYfJnSPj1cgphsvQiZVIBhM7XU_mkMm_Nc5bmfmyKfEKRD3fuLEZWsMVjCR_c8FX4zdjZwz69XhnX9F7POKTddDvO6EmzqDDqIUunBsBVTX7OsD9No55ZBYMfTSQpCqzJlQLUPhlT7RYjn6bN2Pl8qjnpCecUTsTZ3n19tvzBaZgC2EQ-Ci89oKmBYYiSY5u6NW-zVdmjfKx-vdhKVOFz726BIiPjNQ8tE-fjqtKmPw6bBp37i8gJqSQVUp6gD6Ikzrv2pSiwEZtSaYHUdYuffF0pJUT1CvxJB9wNqs7EHRe3EBnkv-1Imlw8yu1xxz7Zp36jThjwOjUteGeGEd3g2pgEsDsilbda-jWDjdHivD5F9isrtXGHU6dBkzgNFp_zQ7jxc_YnUbTYMim0q5y4oRAkl2uOki_?></g></svg>