<svg xmlns="http://www.w3.org/2000/svg" xmlns:xlink="http://www.w3.org/1999/xlink" contentStyleType="text/css" data-diagram-type="DESCRIPTION" height="1472px" preserveAspectRatio="none" style="width:2086px;height:1472px;background:#FFFFFF;" version="1.1" viewBox="0 0 2086 1472" width="2086px" zoomAndPan="magnify"><?plantuml 1.2026.6?><defs/><g><g class="title" data-source-line="1"><text fill="#000000" font-family="'Apple SD Gothic Neo'" font-size="14" font-weight="700" lengthAdjust="spacing" textLength="177.17" x="951.292" y="22.6">&#54616;&#45348;&#49828; / &#54756;&#47476;&#47700;&#49828; &#50640;&#51060;&#51204;&#53944; &#44396;&#51312;</text></g><!--entity user--><g class="entity" data-qualified-name="user" data-source-line="15" id="ent0001"><ellipse cx="24.165" cy="812.1" fill="#F1F1F1" rx="8" ry="8" style="stroke:#181818;stroke-width:0.5;"/><path d="M24.165,820.1 L24.165,847.1 M11.165,828.1 L37.165,828.1 M24.165,847.1 L11.165,862.1 M24.165,847.1 L37.165,862.1" fill="none" style="stroke:#181818;stroke-width:0.5;"/><text fill="#000000" font-family="'Apple SD Gothic Neo'" font-size="14" lengthAdjust="spacing" textLength="36.33" x="6" y="876.2">&#49324;&#50857;&#51088;</text></g><!--entity input--><g class="entity" data-qualified-name="input" data-source-line="16" id="ent0002"><rect fill="#F1F1F1" height="36.8" rx="4" ry="4" style="stroke:#181818;stroke-width:0.5;" width="137.278" x="112.33" y="823.6"/><text fill="#000000" font-family="'Apple SD Gothic Neo'" font-size="14" lengthAdjust="spacing" textLength="117.278" x="122.33" y="846.2">IDE / &#53552;&#48120;&#45328; / &#49828;&#52992;&#51460;</text></g><!--entity cli--><g class="entity" data-qualified-name="cli" data-source-line="18" id="ent0003"><rect fill="#F1F1F1" height="120.8" rx="4" ry="4" style="stroke:#181818;stroke-width:0.5;" width="233.584" x="331.41" y="781.6"/><text fill="#000000" font-family="'Apple SD Gothic Neo'" font-size="14" lengthAdjust="spacing" textLength="82.908" x="341.41" y="804.2">CLI &#51064;&#53552;&#54168;&#51060;&#49828;</text><text fill="#000000" font-family="'Apple SD Gothic Neo'" font-size="14" lengthAdjust="spacing" textLength="53.956" x="341.41" y="821">(harness)</text><text fill="#000000" font-family="'Apple SD Gothic Neo'" font-size="14" lengthAdjust="spacing" textLength="3.682" x="341.41" y="837.8">&#160;</text><text fill="#000000" font-family="'Apple SD Gothic Neo'" font-size="14" lengthAdjust="spacing" textLength="213.584" x="341.41" y="854.6">- run / doctor / show / watch / clean</text><text fill="#000000" font-family="'Apple SD Gothic Neo'" font-size="14" lengthAdjust="spacing" textLength="176.232" x="341.41" y="871.4">- init-project / install-ide-task</text><text fill="#000000" font-family="'Apple SD Gothic Neo'" font-size="14" lengthAdjust="spacing" textLength="108.934" x="341.41" y="888.2">- hermes &#50868;&#50689; &#47749;&#47161;</text></g><!--entity hermes--><g class="entity" data-qualified-name="hermes" data-source-line="20" id="ent0004"><rect fill="#F1F1F1" height="322.4" rx="4" ry="4" style="stroke:#181818;stroke-width:0.5;" width="251.266" x="646.79" y="282.8"/><text fill="#000000" font-family="'Apple SD Gothic Neo'" font-size="14" lengthAdjust="spacing" textLength="88.452" x="656.79" y="305.4">&#54756;&#47476;&#47700;&#49828; &#50868;&#50689;&#51088;</text><text fill="#000000" font-family="'Apple SD Gothic Neo'" font-size="14" lengthAdjust="spacing" textLength="101.038" x="656.79" y="322.2">(harness hermes)</text><text fill="#000000" font-family="'Apple SD Gothic Neo'" font-size="14" lengthAdjust="spacing" textLength="3.682" x="656.79" y="339">&#160;</text><text fill="#000000" font-family="'Apple SD Gothic Neo'" font-size="14" lengthAdjust="spacing" textLength="61.852" x="656.79" y="355.8">- &#50868;&#50689; &#47749;&#47161;</text><text fill="#000000" font-family="'Apple SD Gothic Neo'" font-size="14" lengthAdjust="spacing" textLength="168.658" x="664.154" y="372.6">status / plan / enqueue / tick</text><text fill="#000000" font-family="'Apple SD Gothic Neo'" font-size="14" lengthAdjust="spacing" textLength="158.872" x="664.154" y="389.4">approve / reject / feedback</text><text fill="#000000" font-family="'Apple SD Gothic Neo'" font-size="14" lengthAdjust="spacing" textLength="99.358" x="664.154" y="406.2">promote / report</text><text fill="#000000" font-family="'Apple SD Gothic Neo'" font-size="14" lengthAdjust="spacing" textLength="49.742" x="656.79" y="423">- &#51089;&#50629; &#53328;</text><text fill="#000000" font-family="'Apple SD Gothic Neo'" font-size="14" lengthAdjust="spacing" textLength="190.582" x="664.154" y="439.8">pending / running / done / failed</text><text fill="#000000" font-family="'Apple SD Gothic Neo'" font-size="14" lengthAdjust="spacing" textLength="73.136" x="656.79" y="456.6">- &#44228;&#54925; + &#51221;&#52293;</text><text fill="#000000" font-family="'Apple SD Gothic Neo'" font-size="14" lengthAdjust="spacing" textLength="92.134" x="664.154" y="473.4">&#47700;&#47784;&#47532; &#44592;&#48152; &#44228;&#54925;</text><text fill="#000000" font-family="'Apple SD Gothic Neo'" font-size="14" lengthAdjust="spacing" textLength="80.024" x="664.154" y="490.2">&#50948;&#54744; &#51089;&#50629; &#52264;&#45800;</text><text fill="#000000" font-family="'Apple SD Gothic Neo'" font-size="14" lengthAdjust="spacing" textLength="92.134" x="664.154" y="507">&#48372;&#54840; &#48652;&#47004;&#52824; &#52264;&#45800;</text><text fill="#000000" font-family="'Apple SD Gothic Neo'" font-size="14" lengthAdjust="spacing" textLength="73.962" x="656.79" y="523.8">- &#54588;&#46300;&#48177; &#51200;&#51109;</text><text fill="#000000" font-family="'Apple SD Gothic Neo'" font-size="14" lengthAdjust="spacing" textLength="61.852" x="656.79" y="540.6">- &#54056;&#53556; &#49849;&#44201;</text><text fill="#000000" font-family="'Apple SD Gothic Neo'" font-size="14" lengthAdjust="spacing" textLength="97.16" x="664.154" y="557.4">&#51228;&#50504; / patch &#49373;&#49457;</text><text fill="#000000" font-family="'Apple SD Gothic Neo'" font-size="14" lengthAdjust="spacing" textLength="85.246" x="656.79" y="574.2">- &#47532;&#54252;&#53944; + &#50508;&#47548;</text><text fill="#000000" font-family="'Apple SD Gothic Neo'" font-size="14" lengthAdjust="spacing" textLength="223.902" x="664.154" y="591">markdown / webhook / slack / discord</text></g><!--entity runtime--><g class="entity" data-qualified-name="runtime" data-source-line="22" id="ent0005"><rect fill="#F1F1F1" height="356" rx="4" ry="4" style="stroke:#181818;stroke-width:0.5;" width="273.134" x="968.06" y="664"/><text fill="#000000" font-family="'Apple SD Gothic Neo'" font-size="14" lengthAdjust="spacing" textLength="76.342" x="978.06" y="686.6">&#54616;&#45348;&#49828; &#49892;&#54665;&#44592;</text><text fill="#000000" font-family="'Apple SD Gothic Neo'" font-size="14" lengthAdjust="spacing" textLength="77.406" x="978.06" y="703.4">(harness run)</text><text fill="#000000" font-family="'Apple SD Gothic Neo'" font-size="14" lengthAdjust="spacing" textLength="3.682" x="978.06" y="720.2">&#160;</text><text fill="#000000" font-family="'Apple SD Gothic Neo'" font-size="14" lengthAdjust="spacing" textLength="99.316" x="978.06" y="737">- config preflight</text><text fill="#000000" font-family="'Apple SD Gothic Neo'" font-size="14" lengthAdjust="spacing" textLength="151.424" x="985.424" y="753.8">.harness.json schema &#44160;&#51613;</text><text fill="#000000" font-family="'Apple SD Gothic Neo'" font-size="14" lengthAdjust="spacing" textLength="98.182" x="978.06" y="770.6">- &#54028;&#51060;&#54532;&#46972;&#51064; &#49440;&#53469;</text><text fill="#000000" font-family="'Apple SD Gothic Neo'" font-size="14" lengthAdjust="spacing" textLength="160.86" x="985.424" y="787.4">auto deterministic classifier</text><text fill="#000000" font-family="'Apple SD Gothic Neo'" font-size="14" lengthAdjust="spacing" textLength="245.77" x="985.424" y="804.2">quick_fix / code_fix / safe_fix / review_only</text><text fill="#000000" font-family="'Apple SD Gothic Neo'" font-size="14" lengthAdjust="spacing" textLength="100.184" x="978.06" y="821">- workspace &#51456;&#48708;</text><text fill="#000000" font-family="'Apple SD Gothic Neo'" font-size="14" lengthAdjust="spacing" textLength="143.934" x="985.424" y="837.8">direct / worktree / patch</text><text fill="#000000" font-family="'Apple SD Gothic Neo'" font-size="14" lengthAdjust="spacing" textLength="128.002" x="978.06" y="854.6">- middleware runtime</text><text fill="#000000" font-family="'Apple SD Gothic Neo'" font-size="14" lengthAdjust="spacing" textLength="206.486" x="985.424" y="871.4">redaction / context / retry / budget</text><text fill="#000000" font-family="'Apple SD Gothic Neo'" font-size="14" lengthAdjust="spacing" textLength="87.122" x="978.06" y="888.2">- provider &#44228;&#50557;</text><text fill="#000000" font-family="'Apple SD Gothic Neo'" font-size="14" lengthAdjust="spacing" textLength="199.262" x="985.424" y="905">capability / outputMode / timeout</text><text fill="#000000" font-family="'Apple SD Gothic Neo'" font-size="14" lengthAdjust="spacing" textLength="73.962" x="978.06" y="921.8">- &#51089;&#50629;&#51088; &#45800;&#44228;</text><text fill="#000000" font-family="'Apple SD Gothic Neo'" font-size="14" lengthAdjust="spacing" textLength="169.456" x="985.424" y="938.6">planner / coder / qa / verifier</text><text fill="#000000" font-family="'Apple SD Gothic Neo'" font-size="14" lengthAdjust="spacing" textLength="98.182" x="978.06" y="955.4">- &#54756;&#47476;&#47700;&#49828; &#44048;&#46021;&#51088;</text><text fill="#000000" font-family="'Apple SD Gothic Neo'" font-size="14" lengthAdjust="spacing" textLength="116.354" x="985.424" y="972.2">&#54028;&#51060;&#54532;&#46972;&#51064; &#45236;&#48512; &#54032;&#45800;</text><text fill="#000000" font-family="'Apple SD Gothic Neo'" font-size="14" lengthAdjust="spacing" textLength="73.962" x="978.06" y="989">- &#52572;&#51333; &#48372;&#44256;&#51088;</text><text fill="#000000" font-family="'Apple SD Gothic Neo'" font-size="14" lengthAdjust="spacing" textLength="70.574" x="985.424" y="1005.8">reporter.md</text></g><!--entity runner--><g class="entity" data-qualified-name="runner" data-source-line="24" id="ent0006"><rect fill="#F1F1F1" height="137.6" rx="4" ry="4" style="stroke:#181818;stroke-width:0.5;" width="170.15" x="1357.11" y="49.2"/><text fill="#000000" font-family="'Apple SD Gothic Neo'" font-size="14" lengthAdjust="spacing" textLength="95.382" x="1367.11" y="71.8">Runtime Runner</text><text fill="#000000" font-family="'Apple SD Gothic Neo'" font-size="14" lengthAdjust="spacing" textLength="3.682" x="1367.11" y="88.6">&#160;</text><text fill="#000000" font-family="'Apple SD Gothic Neo'" font-size="14" lengthAdjust="spacing" textLength="116.494" x="1367.11" y="105.4">- local child process</text><text fill="#000000" font-family="'Apple SD Gothic Neo'" font-size="14" lengthAdjust="spacing" textLength="104.986" x="1367.11" y="122.2">- docker run --rm</text><text fill="#000000" font-family="'Apple SD Gothic Neo'" font-size="14" lengthAdjust="spacing" textLength="150.15" x="1367.11" y="139">- repo/runDir bind mount</text><text fill="#000000" font-family="'Apple SD Gothic Neo'" font-size="14" lengthAdjust="spacing" textLength="82.502" x="1367.11" y="155.8">- env allowlist</text><text fill="#000000" font-family="'Apple SD Gothic Neo'" font-size="14" lengthAdjust="spacing" textLength="96.53" x="1367.11" y="172.6">- network policy</text></g><!--entity provider--><g class="entity" data-qualified-name="provider" data-source-line="26" id="ent0007"><rect fill="#F1F1F1" height="154.4" rx="4" ry="4" style="stroke:#181818;stroke-width:0.5;" width="152.076" x="1652.5" y="44.8"/><text fill="#000000" font-family="'Apple SD Gothic Neo'" font-size="14" lengthAdjust="spacing" textLength="100.366" x="1662.5" y="67.4">Provider Adapter</text><text fill="#000000" font-family="'Apple SD Gothic Neo'" font-size="14" lengthAdjust="spacing" textLength="3.682" x="1662.5" y="84.2">&#160;</text><text fill="#000000" font-family="'Apple SD Gothic Neo'" font-size="14" lengthAdjust="spacing" textLength="46.494" x="1662.5" y="101">- Codex</text><text fill="#000000" font-family="'Apple SD Gothic Neo'" font-size="14" lengthAdjust="spacing" textLength="49.546" x="1662.5" y="117.8">- Claude</text><text fill="#000000" font-family="'Apple SD Gothic Neo'" font-size="14" lengthAdjust="spacing" textLength="74.032" x="1662.5" y="134.6">- Antigravity</text><text fill="#000000" font-family="'Apple SD Gothic Neo'" font-size="14" lengthAdjust="spacing" textLength="76.916" x="1662.5" y="151.4">- Custom CLI</text><text fill="#000000" font-family="'Apple SD Gothic Neo'" font-size="14" lengthAdjust="spacing" textLength="3.682" x="1662.5" y="168.2">&#160;</text><text fill="#000000" font-family="'Apple SD Gothic Neo'" font-size="14" lengthAdjust="spacing" textLength="132.076" x="1662.5" y="185">stdout/file output &#44228;&#50557;</text></g><!--entity validation--><g class="entity" data-qualified-name="validation" data-source-line="28" id="ent0008"><rect fill="#F1F1F1" height="137.6" rx="4" ry="4" style="stroke:#181818;stroke-width:0.5;" width="170.71" x="1643.19" y="269.2"/><text fill="#000000" font-family="'Apple SD Gothic Neo'" font-size="14" lengthAdjust="spacing" textLength="104.706" x="1653.19" y="291.8">Validation Runner</text><text fill="#000000" font-family="'Apple SD Gothic Neo'" font-size="14" lengthAdjust="spacing" textLength="3.682" x="1653.19" y="308.6">&#160;</text><text fill="#000000" font-family="'Apple SD Gothic Neo'" font-size="14" lengthAdjust="spacing" textLength="98.448" x="1653.19" y="325.4">- buildCommand</text><text fill="#000000" font-family="'Apple SD Gothic Neo'" font-size="14" lengthAdjust="spacing" textLength="92.022" x="1653.19" y="342.2">- testCommand</text><text fill="#000000" font-family="'Apple SD Gothic Neo'" font-size="14" lengthAdjust="spacing" textLength="132.37" x="1653.19" y="359">- validationCommands</text><text fill="#000000" font-family="'Apple SD Gothic Neo'" font-size="14" lengthAdjust="spacing" textLength="3.682" x="1653.19" y="375.8">&#160;</text><text fill="#000000" font-family="'Apple SD Gothic Neo'" font-size="14" lengthAdjust="spacing" textLength="150.71" x="1653.19" y="392.6">selected runtime&#50640;&#49436; &#49892;&#54665;</text></g><!--entity project--><g class="entity" data-qualified-name="project" data-source-line="30" id="ent0009"><rect fill="#F1F1F1" height="137.6" rx="4" ry="4" style="stroke:#181818;stroke-width:0.5;" width="188.854" x="1883.9" y="161.2"/><text fill="#000000" font-family="'Apple SD Gothic Neo'" font-size="14" lengthAdjust="spacing" textLength="88.452" x="1893.9" y="183.8">&#54532;&#47196;&#51229;&#53944; &#51200;&#51109;&#49548;</text><text fill="#000000" font-family="'Apple SD Gothic Neo'" font-size="14" lengthAdjust="spacing" textLength="3.682" x="1893.9" y="200.6">&#160;</text><text fill="#000000" font-family="'Apple SD Gothic Neo'" font-size="14" lengthAdjust="spacing" textLength="85.106" x="1893.9" y="217.4">- .harness.json</text><text fill="#000000" font-family="'Apple SD Gothic Neo'" font-size="14" lengthAdjust="spacing" textLength="148.512" x="1901.264" y="234.2">pipeline / agents / runner</text><text fill="#000000" font-family="'Apple SD Gothic Neo'" font-size="14" lengthAdjust="spacing" textLength="161.49" x="1901.264" y="251">validation / policy / cleanup</text><text fill="#000000" font-family="'Apple SD Gothic Neo'" font-size="14" lengthAdjust="spacing" textLength="92.806" x="1893.9" y="267.8">- &#54788;&#51116; git &#48652;&#47004;&#52824;</text><text fill="#000000" font-family="'Apple SD Gothic Neo'" font-size="14" lengthAdjust="spacing" textLength="61.852" x="1893.9" y="284.6">- &#49548;&#49828; &#53076;&#46300;</text></g><!--entity memory--><g class="entity" data-qualified-name="memory" data-source-line="32" id="ent0010"><path d="M1667.78,524.5 C1667.78,514.5 1728.544,514.5 1728.544,514.5 C1728.544,514.5 1789.308,514.5 1789.308,524.5 L1789.308,617.5 C1789.308,627.5 1728.544,627.5 1728.544,627.5 C1728.544,627.5 1667.78,627.5 1667.78,617.5 L1667.78,524.5" fill="#F1F1F1" style="stroke:#181818;stroke-width:0.5;"/><path d="M1667.78,524.5 C1667.78,534.5 1728.544,534.5 1728.544,534.5 C1728.544,534.5 1789.308,534.5 1789.308,524.5" fill="none" style="stroke:#181818;stroke-width:0.5;"/><text fill="#000000" font-family="'Apple SD Gothic Neo'" font-size="14" lengthAdjust="spacing" textLength="76.342" x="1677.78" y="551.1">&#47700;&#47784;&#47532; &#51200;&#51109;&#49548;</text><text fill="#000000" font-family="'Apple SD Gothic Neo'" font-size="14" lengthAdjust="spacing" textLength="3.682" x="1677.78" y="567.9">&#160;</text><text fill="#000000" font-family="'Apple SD Gothic Neo'" font-size="14" lengthAdjust="spacing" textLength="101.528" x="1677.78" y="584.7">.harness/memory</text><text fill="#000000" font-family="'Apple SD Gothic Neo'" font-size="14" lengthAdjust="spacing" textLength="55.888" x="1677.78" y="601.5">runs.jsonl</text><text fill="#000000" font-family="'Apple SD Gothic Neo'" font-size="14" lengthAdjust="spacing" textLength="59.892" x="1677.78" y="618.3">repos.json</text></g><!--entity artifacts--><g class="entity" data-qualified-name="artifacts" data-source-line="34" id="ent0011"><rect fill="#F1F1F1" height="154.4" rx="4" ry="4" style="stroke:#181818;stroke-width:0.5;" width="120.38" x="1382" y="530.8"/><text fill="#000000" font-family="'Apple SD Gothic Neo'" font-size="14" lengthAdjust="spacing" textLength="64.232" x="1392" y="553.4">&#49892;&#54665; &#49328;&#52636;&#47932;</text><text fill="#000000" font-family="'Apple SD Gothic Neo'" font-size="14" lengthAdjust="spacing" textLength="3.682" x="1392" y="570.2">&#160;</text><text fill="#000000" font-family="'Apple SD Gothic Neo'" font-size="14" lengthAdjust="spacing" textLength="77.476" x="1392" y="587">runs/&lt;runId&gt;</text><text fill="#000000" font-family="'Apple SD Gothic Neo'" font-size="14" lengthAdjust="spacing" textLength="77.896" x="1392" y="603.8">manifest.json</text><text fill="#000000" font-family="'Apple SD Gothic Neo'" font-size="14" lengthAdjust="spacing" textLength="100.38" x="1392" y="620.6">request / prompt</text><text fill="#000000" font-family="'Apple SD Gothic Neo'" font-size="14" lengthAdjust="spacing" textLength="85.26" x="1392" y="637.4">stdout / stderr</text><text fill="#000000" font-family="'Apple SD Gothic Neo'" font-size="14" lengthAdjust="spacing" textLength="70.574" x="1392" y="654.2">reporter.md</text><text fill="#000000" font-family="'Apple SD Gothic Neo'" font-size="14" lengthAdjust="spacing" textLength="83.916" x="1392" y="671">changes.patch</text></g><!--entity summary--><g class="entity" data-qualified-name="summary" data-source-line="36" id="ent0012"><rect fill="#F1F1F1" height="120.8" rx="4" ry="4" style="stroke:#181818;stroke-width:0.5;" width="180.496" x="1351.94" y="1064.6"/><text fill="#000000" font-family="'Apple SD Gothic Neo'" font-size="14" lengthAdjust="spacing" textLength="52.122" x="1361.94" y="1087.2">&#49892;&#54665; &#50836;&#50557;</text><text fill="#000000" font-family="'Apple SD Gothic Neo'" font-size="14" lengthAdjust="spacing" textLength="3.682" x="1361.94" y="1104">&#160;</text><text fill="#000000" font-family="'Apple SD Gothic Neo'" font-size="14" lengthAdjust="spacing" textLength="99.89" x="1361.94" y="1120.8">pipelineSelection</text><text fill="#000000" font-family="'Apple SD Gothic Neo'" font-size="14" lengthAdjust="spacing" textLength="89.082" x="1361.94" y="1137.6">usageSummary</text><text fill="#000000" font-family="'Apple SD Gothic Neo'" font-size="14" lengthAdjust="spacing" textLength="160.496" x="1361.94" y="1154.4">provider calls / token / cost</text><text fill="#000000" font-family="'Apple SD Gothic Neo'" font-size="14" lengthAdjust="spacing" textLength="156.66" x="1361.94" y="1171.2">remaining provider budget</text></g><!--entity observe--><g class="entity" data-qualified-name="observe" data-source-line="38" id="ent0013"><rect fill="#F1F1F1" height="120.8" rx="4" ry="4" style="stroke:#181818;stroke-width:0.5;" width="125.126" x="1042.06" y="1201.6"/><text fill="#000000" font-family="'Apple SD Gothic Neo'" font-size="14" lengthAdjust="spacing" textLength="63.406" x="1052.06" y="1224.2">&#44288;&#52272; + &#51221;&#47532;</text><text fill="#000000" font-family="'Apple SD Gothic Neo'" font-size="14" lengthAdjust="spacing" textLength="3.682" x="1052.06" y="1241">&#160;</text><text fill="#000000" font-family="'Apple SD Gothic Neo'" font-size="14" lengthAdjust="spacing" textLength="79.744" x="1052.06" y="1257.8">harness show</text><text fill="#000000" font-family="'Apple SD Gothic Neo'" font-size="14" lengthAdjust="spacing" textLength="84.266" x="1052.06" y="1274.6">harness watch</text><text fill="#000000" font-family="'Apple SD Gothic Neo'" font-size="14" lengthAdjust="spacing" textLength="79.352" x="1052.06" y="1291.4">harness clean</text><text fill="#000000" font-family="'Apple SD Gothic Neo'" font-size="14" lengthAdjust="spacing" textLength="105.126" x="1052.06" y="1308.2">clean --worktrees</text></g><!--entity external--><g class="entity" data-qualified-name="external" data-source-line="40" id="ent0014"><path d="M1058.1378,539.5953 C1060.7887,533.4992 1066.3451,533.5334 1070.2241,538.2186 C1073.7509,531.8173 1077.5296,531.888 1082.5237,536.5938 C1085.8715,531.4273 1090.3349,531.7077 1093.3693,536.9212 C1095.8879,529.3079 1100.6983,529.1583 1105.9294,534.2369 C1109.7856,529.6276 1114.8402,531.6113 1116.4492,536.6796 C1119.1681,531.1345 1125.0769,530.214 1128.3657,536.0847 C1132.9714,531.2594 1137.724,531.9699 1140.4351,538.1604 C1144.6555,531.7026 1149.5219,532.3057 1152.9985,538.8776 C1160.455,542.2093 1160.2421,546.254 1155.0952,551.654 C1162.5941,552.7314 1163.3163,557.9126 1159.6644,563.3473 C1164.3516,568.9864 1161.0702,574.1421 1154.6557,575.0157 C1158.4873,579.1535 1157.8868,583.9092 1152.3076,586.0431 C1150.1259,591.2455 1145.0369,592.4708 1141.5466,587.416 C1138.5007,593.4713 1132.5005,593.7006 1129.1512,587.7288 C1126.2018,592.751 1122.1817,593.3728 1118.2976,588.7843 C1115.5305,594.4876 1110.1663,594.8597 1106.0637,590.3905 C1101.9126,595.4401 1097.5918,595.5571 1094.1288,589.6417 C1089.2517,594.086 1085.1885,593.7261 1082.385,587.384 C1079.6332,593.8643 1073.6628,594.2674 1070.3615,587.8982 C1066.6233,593.3741 1061.9816,593.0545 1058.8714,587.258 C1053.4397,584.6088 1052.4922,578.6032 1057.9786,575.1489 C1051.2315,572.1586 1050.5717,566.6674 1056.5981,562.3043 C1051.6111,558.4866 1052.2959,553.0785 1057.8076,550.3204 C1052.4058,547.0867 1053.6933,542.5259 1058.1378,539.5953" fill="#F1F1F1" style="stroke:#181818;stroke-width:0.5;"/><text fill="#000000" font-family="'Apple SD Gothic Neo'" font-size="14" lengthAdjust="spacing" textLength="80.024" x="1064.61" y="557.8">&#50808;&#48512; &#50508;&#47548; &#52292;&#45328;</text><text fill="#000000" font-family="'Apple SD Gothic Neo'" font-size="14" lengthAdjust="spacing" textLength="52.122" x="1064.61" y="574.6">&#49440;&#53469; &#50672;&#44208;</text></g><g class="entity" data-qualified-name="GMN36" data-source-line="67" id="ent0037"><path d="M319.61,972.4 L319.61,1013.6 A0,0 0 0 0 319.61,1013.6 L576.794,1013.6 A0,0 0 0 0 576.794,1013.6 L576.794,982.4 L566.794,972.4 L451.75,972.4 L447.75,902.55 L443.75,972.4 L319.61,972.4 A0,0 0 0 0 319.61,972.4" fill="#FEFFDD" style="stroke:#181818;stroke-width:0.5;"/><path d="M566.794,972.4 L566.794,982.4 L576.794,982.4 L566.794,972.4" fill="#FEFFDD" style="stroke:#181818;stroke-width:0.5;"/><text fill="#000000" font-family="'Apple SD Gothic Neo'" font-size="13" lengthAdjust="spacing" textLength="195.637" x="325.61" y="989.1">CLI&#45716; &#51649;&#51217; &#49892;&#54665;(run)&#44284; &#50868;&#50689;(hermes),</text><text fill="#000000" font-family="'Apple SD Gothic Neo'" font-size="13" lengthAdjust="spacing" textLength="236.184" x="325.61" y="1004.7">&#44288;&#52272;(show/watch), &#51221;&#47532;(clean)&#47484; &#46972;&#50864;&#54021;&#54620;&#45796;.</text></g><g class="entity" data-qualified-name="GMN39" data-source-line="72" id="ent0040"><path d="M663.66,675.4 L663.66,716.6 A0,0 0 0 0 663.66,716.6 L881.194,716.6 A0,0 0 0 0 881.194,716.6 L881.194,685.4 L871.194,675.4 L776.75,675.4 L772.75,605.38 L768.75,675.4 L663.66,675.4 A0,0 0 0 0 663.66,675.4" fill="#FEFFDD" style="stroke:#181818;stroke-width:0.5;"/><path d="M871.194,675.4 L871.194,685.4 L881.194,685.4 L871.194,675.4" fill="#FEFFDD" style="stroke:#181818;stroke-width:0.5;"/><text fill="#000000" font-family="'Apple SD Gothic Neo'" font-size="13" lengthAdjust="spacing" textLength="167.687" x="669.66" y="692.1">&#54756;&#47476;&#47700;&#49828; &#50868;&#50689;&#51088;&#45716; &#54616;&#45348;&#49828; &#48150;&#50640;&#49436;</text><text fill="#000000" font-family="'Apple SD Gothic Neo'" font-size="13" lengthAdjust="spacing" textLength="196.534" x="669.66" y="707.7">&#51089;&#50629;&#51012; &#51217;&#49688;&#54616;&#44256; &#49892;&#54665; &#50668;&#48512;&#47484; &#44208;&#51221;&#54620;&#45796;.</text></g><g class="entity" data-qualified-name="GMN42" data-source-line="77" id="ent0043"><path d="M1001.48,1090.4 L1001.48,1131.6 A0,0 0 0 0 1001.48,1131.6 L1207.769,1131.6 A0,0 0 0 0 1207.769,1131.6 L1207.769,1100.4 L1197.769,1090.4 L1108.75,1090.4 L1104.75,1020.3 L1100.75,1090.4 L1001.48,1090.4 A0,0 0 0 0 1001.48,1090.4" fill="#FEFFDD" style="stroke:#181818;stroke-width:0.5;"/><path d="M1197.769,1090.4 L1197.769,1100.4 L1207.769,1100.4 L1197.769,1090.4" fill="#FEFFDD" style="stroke:#181818;stroke-width:0.5;"/><text fill="#000000" font-family="'Apple SD Gothic Neo'" font-size="13" lengthAdjust="spacing" textLength="167.687" x="1007.48" y="1107.1">&#54756;&#47476;&#47700;&#49828; &#44048;&#46021;&#51088;&#45716; &#54616;&#45348;&#49828; &#50504;&#50640;&#49436;</text><text fill="#000000" font-family="'Apple SD Gothic Neo'" font-size="13" lengthAdjust="spacing" textLength="185.289" x="1007.48" y="1122.7">&#51089;&#50629;&#51088; &#44208;&#44284;&#50752; &#44160;&#51613; &#44208;&#44284;&#47484; &#54032;&#45800;&#54620;&#45796;.</text></g><g class="entity" data-qualified-name="GMN45" data-source-line="82" id="ent0046"><path d="M1311.19,399.4 L1311.19,440.6 A0,0 0 0 0 1311.19,440.6 L1573.184,440.6 A0,0 0 0 0 1573.184,440.6 L1573.184,409.4 L1563.184,399.4 L1445.75,399.4 L1441.75,187.28 L1437.75,399.4 L1311.19,399.4 A0,0 0 0 0 1311.19,399.4" fill="#FEFFDD" style="stroke:#181818;stroke-width:0.5;"/><path d="M1563.184,399.4 L1563.184,409.4 L1573.184,409.4 L1563.184,399.4" fill="#FEFFDD" style="stroke:#181818;stroke-width:0.5;"/><text fill="#000000" font-family="'Apple SD Gothic Neo'" font-size="13" lengthAdjust="spacing" textLength="240.994" x="1317.19" y="416.1">Docker runner&#45716; &#54596;&#49688;&#44032; &#50500;&#45768;&#46972; &#49440;&#53469; &#50741;&#49496;&#51060;&#45796;.</text><text fill="#000000" font-family="'Apple SD Gothic Neo'" font-size="13" lengthAdjust="spacing" textLength="203.593" x="1317.19" y="431.7">&#44592;&#48376; &#49892;&#54665;&#51008; local-first &#47784;&#45944;&#51012; &#50976;&#51648;&#54620;&#45796;.</text></g><!--link user to input--><g class="link" data-entity-1="ent0001" data-entity-2="ent0002" data-link-type="dependency" data-source-line="42" id="lnk15"><path d="M42.77,842 C59.97,842 81.62,842 106.94,842" fill="none" id="user-to-input" style="stroke:#181818;stroke-width:1;"/><polygon fill="#181818" points="111.94,842,102.94,838,106.94,842,102.94,846,111.94,842" style="stroke:#181818;stroke-width:1;stroke-linejoin:miter;stroke-miterlimit:10;"/></g><!--link input to cli--><g class="link" data-entity-1="ent0002" data-entity-2="ent0003" data-link-type="dependency" data-source-line="43" id="lnk16"><path d="M249.79,842 C274.61,842 298.37,842 326.15,842" fill="none" id="input-to-cli" style="stroke:#181818;stroke-width:1;"/><polygon fill="#181818" points="331.15,842,322.15,838,326.15,842,322.15,846,331.15,842" style="stroke:#181818;stroke-width:1;stroke-linejoin:miter;stroke-miterlimit:10;"/></g><!--link cli to runtime--><g class="link" data-entity-1="ent0003" data-entity-2="ent0005" data-link-type="dependency" data-source-line="45" id="lnk17"><path d="M565.18,842 C677.97,842 843.63,842 962.69,842" fill="none" id="cli-to-runtime" style="stroke:#181818;stroke-width:1;"/><polygon fill="#181818" points="967.69,842,958.69,838,962.69,842,958.69,846,967.69,842" style="stroke:#181818;stroke-width:1;stroke-linejoin:miter;stroke-miterlimit:10;"/></g><!--link cli to hermes--><g class="link" data-entity-1="ent0003" data-entity-2="ent0004" data-link-type="dependency" data-source-line="46" id="lnk18"><path d="M565.36,811.8 C611.97,811.8 654.75,811.8 654.75,811.8 C654.75,811.8 654.75,709.34 654.75,610.59" fill="none" id="cli-to-hermes" style="stroke:#181818;stroke-width:1;"/><polygon fill="#181818" points="654.75,605.59,650.75,614.59,654.75,610.59,658.75,614.59,654.75,605.59" style="stroke:#181818;stroke-width:1;stroke-linejoin:miter;stroke-miterlimit:10;"/></g><!--link cli to observe--><g class="link" data-entity-1="ent0003" data-entity-2="ent0013" data-link-type="dependency" data-source-line="47" id="lnk19"><path d="M565.32,872.2 C591.54,872.2 611.75,872.2 611.75,872.2 C611.75,872.2 611.75,1262 611.75,1262 C611.75,1262 903.83,1262 1036.7,1262" fill="none" id="cli-to-observe" style="stroke:#181818;stroke-width:1;"/><polygon fill="#181818" points="1041.7,1262,1032.7,1258,1036.7,1262,1032.7,1266,1041.7,1262" style="stroke:#181818;stroke-width:1;stroke-linejoin:miter;stroke-miterlimit:10;"/></g><!--link hermes to runtime--><g class="link" data-entity-1="ent0004" data-entity-2="ent0005" data-link-type="dependency" data-source-line="48" id="lnk20"><path d="M889.75,605.63 C889.75,641.8 889.75,669.7 889.75,669.7 C889.75,669.7 920.38,669.7 962.63,669.7" fill="none" id="hermes-to-runtime" style="stroke:#181818;stroke-width:1;"/><polygon fill="#181818" points="967.63,669.7,958.63,665.7,962.63,669.7,958.63,673.7,967.63,669.7" style="stroke:#181818;stroke-width:1;stroke-linejoin:miter;stroke-miterlimit:10;"/></g><!--link runtime to project--><g class="link" data-entity-1="ent0005" data-entity-2="ent0009" data-link-type="dependency" data-source-line="49" id="lnk21"><path d="M1213.75,663.54 C1213.75,487.92 1213.75,245.87 1213.75,245.87 C1213.75,245.87 1673.66,245.87 1878.42,245.87" fill="none" id="runtime-to-project" style="stroke:#181818;stroke-width:1;"/><polygon fill="#181818" points="1883.42,245.87,1874.42,241.87,1878.42,245.87,1874.42,249.87,1883.42,245.87" style="stroke:#181818;stroke-width:1;stroke-linejoin:miter;stroke-miterlimit:10;"/></g><!--link runtime to runner--><g class="link" data-entity-1="ent0005" data-entity-2="ent0006" data-link-type="dependency" data-source-line="50" id="lnk22"><path d="M1186.75,663.96 C1186.75,449.59 1186.75,118 1186.75,118 C1186.75,118 1277.52,118 1351.78,118" fill="none" id="runtime-to-runner" style="stroke:#181818;stroke-width:1;"/><polygon fill="#181818" points="1356.78,118,1347.78,114,1351.78,118,1347.78,122,1356.78,118" style="stroke:#181818;stroke-width:1;stroke-linejoin:miter;stroke-miterlimit:10;"/></g><!--link runtime to artifacts--><g class="link" data-entity-1="ent0005" data-entity-2="ent0011" data-link-type="dependency" data-source-line="51" id="lnk23"><path d="M1241.44,671.07 C1290.23,671.07 1337.73,671.07 1376.8,671.07" fill="none" id="runtime-to-artifacts" style="stroke:#181818;stroke-width:1;"/><polygon fill="#181818" points="1381.8,671.07,1372.8,667.07,1376.8,671.07,1372.8,675.07,1381.8,671.07" style="stroke:#181818;stroke-width:1;stroke-linejoin:miter;stroke-miterlimit:10;"/></g><!--link runtime to summary--><g class="link" data-entity-1="ent0005" data-entity-2="ent0012" data-link-type="dependency" data-source-line="52" id="lnk24"><path d="M1224.75,1020.49 C1224.75,1053.34 1224.75,1077.5 1224.75,1077.5 C1224.75,1077.5 1286.89,1077.5 1346.55,1077.5" fill="none" id="runtime-to-summary" style="stroke:#181818;stroke-width:1;"/><polygon fill="#181818" points="1351.55,1077.5,1342.55,1073.5,1346.55,1077.5,1342.55,1081.5,1351.55,1077.5" style="stroke:#181818;stroke-width:1;stroke-linejoin:miter;stroke-miterlimit:10;"/></g><!--link runner to provider--><g class="link" data-entity-1="ent0006" data-entity-2="ent0007" data-link-type="dependency" data-source-line="53" id="lnk25"><path d="M1527.72,95.07 C1567.27,95.07 1608.87,95.07 1647.22,95.07" fill="none" id="runner-to-provider" style="stroke:#181818;stroke-width:1;"/><polygon fill="#181818" points="1652.22,95.07,1643.22,91.07,1647.22,95.07,1643.22,99.07,1652.22,95.07" style="stroke:#181818;stroke-width:1;stroke-linejoin:miter;stroke-miterlimit:10;"/></g><!--link runner to validation--><g class="link" data-entity-1="ent0006" data-entity-2="ent0008" data-link-type="dependency" data-source-line="54" id="lnk26"><path d="M1527.58,140.93 C1584.06,140.93 1647.75,140.93 1647.75,140.93 C1647.75,140.93 1647.75,207.02 1647.75,263.8" fill="none" id="runner-to-validation" style="stroke:#181818;stroke-width:1;"/><polygon fill="#181818" points="1647.75,268.8,1651.75,259.8,1647.75,263.8,1643.75,259.8,1647.75,268.8" style="stroke:#181818;stroke-width:1;stroke-linejoin:miter;stroke-miterlimit:10;"/></g><!--link provider to project--><g class="link" data-entity-1="ent0007" data-entity-2="ent0009" data-link-type="dependency" data-source-line="55" id="lnk27"><path d="M1804.84,180.2 C1829.66,180.2 1852.51,180.2 1878.52,180.2" fill="none" id="provider-to-project" style="stroke:#181818;stroke-width:1;"/><polygon fill="#181818" points="1883.52,180.2,1874.52,176.2,1878.52,180.2,1874.52,184.2,1883.52,180.2" style="stroke:#181818;stroke-width:1;stroke-linejoin:miter;stroke-miterlimit:10;"/></g><!--link validation to project--><g class="link" data-entity-1="ent0008" data-entity-2="ent0009" data-link-type="dependency" data-source-line="56" id="lnk28"><path d="M1814.15,284 C1836.47,284 1855.64,284 1878.41,284" fill="none" id="validation-to-project" style="stroke:#181818;stroke-width:1;"/><polygon fill="#181818" points="1883.41,284,1874.41,280,1878.41,284,1874.41,288,1883.41,284" style="stroke:#181818;stroke-width:1;stroke-linejoin:miter;stroke-miterlimit:10;"/></g><!--link artifacts to memory--><g class="link" data-entity-1="ent0011" data-entity-2="ent0010" data-link-type="dependency" data-source-line="57" id="lnk29"><path d="M1502.57,579.15 C1551.14,579.15 1614.07,579.15 1662.75,579.15" fill="none" id="artifacts-to-memory" style="stroke:#181818;stroke-width:1;"/><polygon fill="#181818" points="1667.75,579.15,1658.75,575.15,1662.75,579.15,1658.75,583.15,1667.75,579.15" style="stroke:#181818;stroke-width:1;stroke-linejoin:miter;stroke-miterlimit:10;"/></g><!--link memory to hermes--><g class="link" data-entity-1="ent0010" data-entity-2="ent0004" data-link-type="dependency" data-source-line="58" id="lnk30"><path d="M1667.28,522.35 C1513.03,522.35 1111.16,522.35 903.39,522.35" fill="none" id="memory-to-hermes" style="stroke:#181818;stroke-width:1;"/><polygon fill="#181818" points="898.39,522.35,907.39,526.35,903.39,522.35,907.39,518.35,898.39,522.35" style="stroke:#181818;stroke-width:1;stroke-linejoin:miter;stroke-miterlimit:10;"/></g><!--link observe to artifacts--><g class="link" data-entity-1="ent0013" data-entity-2="ent0011" data-link-type="dependency" data-source-line="59" id="lnk31"><path d="M1167.37,1262 C1216.21,1262 1275.75,1262 1275.75,1262 C1275.75,1262 1275.75,678.13 1275.75,678.13 C1275.75,678.13 1329.04,678.13 1376.63,678.13" fill="none" id="observe-to-artifacts" style="stroke:#181818;stroke-width:1;"/><polygon fill="#181818" points="1381.63,678.13,1372.63,674.13,1376.63,678.13,1372.63,682.13,1381.63,678.13" style="stroke:#181818;stroke-width:1;stroke-linejoin:miter;stroke-miterlimit:10;"/></g><!--link observe to summary--><g class="link" data-entity-1="ent0013" data-entity-2="ent0012" data-link-type="dependency" data-source-line="60" id="lnk32"><path d="M1104.75,1201.19 C1104.75,1178.67 1104.75,1158.5 1104.75,1158.5 C1104.75,1158.5 1246.81,1158.5 1346.76,1158.5" fill="none" id="observe-to-summary" style="stroke:#181818;stroke-width:1;"/><polygon fill="#181818" points="1351.76,1158.5,1342.76,1154.5,1346.76,1158.5,1342.76,1162.5,1351.76,1158.5" style="stroke:#181818;stroke-width:1;stroke-linejoin:miter;stroke-miterlimit:10;"/></g><!--link hermes to project--><g class="link" data-entity-1="ent0004" data-entity-2="ent0009" data-link-type="dependency" data-source-line="62" id="lnk33"><path d="M772.75,282.47 C772.75,248.41 772.75,222.53 772.75,222.53 C772.75,222.53 1594.03,222.53 1878.47,222.53" fill="none" id="hermes-to-project" style="stroke:#181818;stroke-width:1;"/><polygon fill="#181818" points="1883.47,222.53,1874.47,218.53,1878.47,222.53,1874.47,226.53,1883.47,222.53" style="stroke:#181818;stroke-width:1;stroke-linejoin:miter;stroke-miterlimit:10;"/></g><!--link hermes to artifacts--><g class="link" data-entity-1="ent0004" data-entity-2="ent0011" data-link-type="dependency" data-source-line="63" id="lnk34"><path d="M898.4,599.5 C1042.59,599.5 1267.8,599.5 1376.54,599.5" fill="none" id="hermes-to-artifacts" style="stroke:#181818;stroke-width:1;"/><polygon fill="#181818" points="1381.54,599.5,1372.54,595.5,1376.54,599.5,1372.54,603.5,1381.54,599.5" style="stroke:#181818;stroke-width:1;stroke-linejoin:miter;stroke-miterlimit:10;"/></g><!--link hermes to external--><g class="link" data-entity-1="ent0004" data-entity-2="ent0014" data-link-type="dependency" data-source-line="64" id="lnk35"><path d="M898.49,562 C950.62,562 1003.34,562 1044.41,562" fill="none" id="hermes-to-external" style="stroke:#181818;stroke-width:1;"/><polygon fill="#181818" points="1049.41,562,1040.41,558,1044.41,562,1040.41,566,1049.41,562" style="stroke:#181818;stroke-width:1;stroke-linejoin:miter;stroke-miterlimit:10;"/></g><g class="legend" data-source-line="86"><rect fill="#DDDDDD" height="110.8" rx="7.5" ry="7.5" style="stroke:#000000;stroke-width:1;" width="413.466" x="833.144" y="1342.4"/><line style="stroke:#000000;stroke-width:1;" x1="833.144" x2="1010.134" y1="1355.8" y2="1355.8"/><line style="stroke:#000000;stroke-width:1;" x1="833.144" x2="1010.134" y1="1357.8" y2="1357.8"/><text fill="#000000" font-family="'Apple SD Gothic Neo'" font-size="14" lengthAdjust="spacing" textLength="52.122" x="1013.816" y="1359.5">&#54645;&#49900; &#44396;&#48516;</text><line style="stroke:#000000;stroke-width:1;" x1="1069.62" x2="1246.61" y1="1355.8" y2="1355.8"/><line style="stroke:#000000;stroke-width:1;" x1="1069.62" x2="1246.61" y1="1357.8" y2="1357.8"/><text fill="#000000" font-family="'Apple SD Gothic Neo'" font-size="14" lengthAdjust="spacing" textLength="246.932" x="838.144" y="1376.8">CLI &#51064;&#53552;&#54168;&#51060;&#49828;: &#47749;&#47161; &#46972;&#50864;&#54021;&#44284; &#49324;&#50857;&#51088; &#51652;&#51077;&#51216;</text><text fill="#000000" font-family="'Apple SD Gothic Neo'" font-size="14" lengthAdjust="spacing" textLength="315.672" x="838.144" y="1393.6">&#54756;&#47476;&#47700;&#49828; &#50868;&#50689;&#51088;: &#53328;, &#47700;&#47784;&#47532;, &#51221;&#52293;, &#49849;&#44201;, &#47532;&#54252;&#53944;, &#50508;&#47548; &#44288;&#47532;</text><text fill="#000000" font-family="'Apple SD Gothic Neo'" font-size="14" lengthAdjust="spacing" textLength="212.464" x="838.144" y="1410.4">&#54756;&#47476;&#47700;&#49828; &#44048;&#46021;&#51088;: &#54028;&#51060;&#54532;&#46972;&#51064; &#45236;&#48512; &#54032;&#45800;</text><text fill="#000000" font-family="'Apple SD Gothic Neo'" font-size="14" lengthAdjust="spacing" textLength="403.466" x="838.144" y="1427.2">&#54616;&#45348;&#49828; &#49892;&#54665;&#44592;: config, workspace, pipeline, middleware, manifest &#44288;&#47532;</text><text fill="#000000" font-family="'Apple SD Gothic Neo'" font-size="14" lengthAdjust="spacing" textLength="326.508" x="838.144" y="1444">Runtime Runner: provider CLI&#50752; &#44160;&#51613; &#47749;&#47161; &#49892;&#54665; &#50948;&#52824; &#49440;&#53469;</text></g><?plantuml-src ZLTVRnl74N_dfrZeIKP9gMyjX2Q0OQU5WJOeOg1F0eBbtPBSy6wNtjiJBHG5QESKk9RIo8WKCG8fC8Nis860qfPiq83oXNZBxz2PtJtUCLR_lF1kvtPsVZj_VZFKN4UCB8w7UNPkdfwJJR8uES-VN-MlZd1fJWxD-CfCiiNJ6Pc_lJ0_J6krYBKqqP8etkve4dB50isbg2LTBdfKqPWa7HhAFXTjqg9HmYfV0Xdtf612tzUxO1XLgMX7rIqz6dHfc_td3H4NJE_s695ATsJbGyXQD8tqxwNGdzAOaRNRlHwSSVyk-OFK7HwGJvbSg-nV7ax-MYFaCvcAy8vKWYdoszhVAlk435d2UkGtlwugKz7rmXeDj5HapJo-CAUlpDdX6g49IHEcQgM9jNjtFq7tPjFyNxCyEuHtyB2v7fZppEw7WrDTgshS-UCzOiOpK5dyOuXnU7g-BTOx520coQrjiIqQHAK2JWgbHR09dfTzUFIf3Zhm3296xJOkk6xqbFm2JWSv5uccKTJW8MjecdHnIuUfc2N4d5wPuIEI_xINJzvRO474Ls2jPeZT3dSkaVcJFC2LyxO58M1Pfmc0w4KKiJFn86KfWpVDWoxke3r0keCInJpW5cDXaxhFy36MsdtkGGvOAsVFpCaUMJmwj3kO237xDj4zmhs5a7Pu4EKH2r5bVfajJhyclo9cScnUxw4Ut2d_wMN-ueBCPzDyElHxy9CPPOkJOM77J5_c-o-jokNLOZWZ-UmWFnkPzyFbfmPP75tdtuxowMkmC31dpwtiuEKYkuB8lv-_UMNFdOpCyHFqXWsP-N9iijUu4r0ilhd0kWE4nmVvYslS7bFLXT92l_LPioDb5uCUWMVmYZm9f0fjq5mCLkEsh7ApVxxuxkzmnqhGm5C-Oe4KBTu6DxDMX2METZVyjeql4Yb84dHOJCdypS2y6Bjh7K1-BewoV7mD6KjCDbbyERQnJ84fGgO13kHW0Y66VA99mbkSATpm88MeVzxY3p5TeT3yQq9RnQjYEvprFvSYsaLRVQcw2P048-PyaB_Fy117GkWK-AWLOuL3KI7cOHYnFbKCBwbvp515iP1Qth9sXMOFjRMbrIuycsdOPZQpC1MXJ1JcWZd-6LK3sgDD7d6DEsMgeMx_1CXj1iSC16L6Gc4GI0VGjNa96O_qucwApmSKVdQOykvehDBlV7gOVxDdYujyuEFyyLN-RW3YGvzlvkt8_7CFCt9-EV5AhaAOseXTMdW7hEJ5Pqv6u2aG19uLoO169EZmA4GF111w50FFT04taawZeM9BG61X4mHtkI9DBa8I0uzQ3p2nGu1aP3-2kAC0Q1lZGteoui5kWGTihi3vS-7mso7jwGBG7N3OG_iIqJHa-7OROBSLtO4us0zfecLCW3HH8z4X16Ap1TNkG-G3QCqMGLqn_1SQyP3QbAYwefc24-x8EAR2yePcYQuiTvPQNfXOyoo2WrbOE1mRQJRoXMSXb7ghHGhn_M5a9cEiVCSRvgi3XsIb26q-yHx3RWWv11rJwCGpdgkiqW9MW_LvqHBIdisrOMREBaYRwvA_R29zTM1PukSZuA_2NqZ4jHgSHviq0Q0bLwwWB31knYoM2W83U1pW2DuXLzp2dkgsh5pVEOYOnrFpRfHVNEEHUCBcx-3tNlZnjW0NynQ4m3j1CUWU2POkjeMUBYAF5A8XmifPzJMmBO8EM6B9XcK7Yu8gpLj01ScDG4wFRD5lYyBNzsraETfE4vnJKeWwNdH9550v4KP2oovpx8Bfhu0nkUr5ousEP2o8n9so0c5-DJ3JgMjGu6S4KP0rjlborNTCLonzqxSFADE24XDhI3PXBDa10WWYcOPmp-zdo2Akmn3pEeFHP5iu_eRnRpf_CxLwG8zC2HhLQZZNmB4V-u75_jgrdHFWnouAeYdMlXyLomA67pgg6lvfPKNULMMUCggYCeHLQU5Jfr2Sv-g-8giKuZ8oLTkLCggAbpQjrAUoUrGlx2_w2vXLwJBq5LyKHYgYKhaYBACYS29gIeqKA5is5i24-TCZOdvyP2RFFFMiOvkVNrxxiMpTZshrcaksTKoiJPjFj-e-xzPj8jtAdryJx3odqyN1tk9ubE-VRzHWpY9e-GFx_lOtZug8gXn6ykbtZXrhlcMECx3yp3mPmXxePAGenPCBo5I40Ja9qFudXYAXRcwfgo1W1bi50NqRp82dpFS3F-Xu0I9mJVV_GO2fUdVPDM7bx6PmlVaKwoxBzv-0NqbHSiEtPW-7VNioZg6NC-y1CnwuljneSGMKX_JxzSowQpGnFmu-X1EnDYuS8FYByz57OFgjsR_0_tBvkmm48BtXRyQMdzVBYDkSAVxVG4v1vzWpaqDGlpd6MpYBryk9kkx7xBgVVUlbW5ils0To48I_F78PiQt_FWAXteSJxfOVP-lbt5XVzirwPJQ4TzzPIXohaz5MoTpWiafUU5yLUJhAxFy06qyCXej2xTy0?></g></svg>